{"title":"Ninjas Vs Vampires *2010* [DVDRip.XviD-miguel] [ENG]","uid":6374739,"size":1033725526,"categoryP":"video","categoryS":"movies","magnet":"?xt=urn:btih:4275fb3ba3b13c4e0db6ad972d3a07e9cc5cdb6e&amp;dn=Ninjas+Vs+Vampires+%2A2010%2A+%5BDVDRip.XviD-miguel%5D+%5BENG%5D&amp;tr=udp%3A%2F%2Ftracker.openbittorrent.com%3A80&amp;tr=udp%3A%2F%2Fopen.demonii.com%3A1337&amp;tr=udp%3A%2F%2Ftracker.coppersurfer.tk%3A6969&amp;tr=udp%3A%2F%2Fexodus.desync.com%3A6969","seeders":0,"leechers":1,"uploader":"miguel1983","files":-1,"time":1304816578,"description":" &lt;a href=&quot;http://img7.imageshack.us/img7/2227/obreakingglasspicturesv.jpg&quot; rel=&quot;nofollow&quot; target=&quot;_NEW&quot;&gt;http://img7.imageshack.us/img7/2227/obreakingglasspicturesv.jpg&lt;/a&gt;\n\nCountry.......: USA\nGenre.........: Horror, Comedy, Action\nDate release..: 2010 [World]\nDirector......: Justin Timpane\nWriters.......: Justin Timpane\nDuration......: 88 min.\nMore..........: http://www.imdb.com/title/tt1748134\nTrailer.......: http://www.imdb.com/video/wab/vi660642073\nTrailer.......:\n\nPilot :\nNinjas battle Vampires for the fate of the world in this all new Action-Horror-Comedy from the creators of 2010's cult smash, &quot;Ninjas Vs Zombies&quot;! Moments after down-on-his-luck Aaron is rejected by the girl of his dreams, they both are attacked by blood sucking VAMPIRES. Driven to save her, Aaron tracks down the mysterious NINJAS, who wage a nightly war against the forces of darkness. Now, as the Vampire overlord Seth plots to destroy Mankind, Aaron has only one choice - join the ninjas, save the world, and get the girl... or die trying. Sexy, funny, shocking, and fun, NINJAS VS VAMPIRES delivers an action-packed comedic adventure unlike any other!\n\nCats :\nJay Saunders   \t ...  \tAaron\nDaniel Ross \t... \tKyle\nCory Okouchi \t... \tCole\nDevon Marie Burt \t... \tAlex\nCarla Okouchi \t... \tLily\nKurt Skarstedt \t... \tSeth\nMelissa McConnell \t... \tAnn\nElizabeth Taylor \t... \tLorna\nLiz Christmas \t... \tLorna\nDaniel Mascarello \t... \tManson\nP.J. Megaw \t... \tThe Bishop\nPaul Sieber \t... \tMajordomo\nWill Stendeback \t... \tMaximillian\nDan Guy \t... \tManguy\nSuzanne Glover \t... \tExecutive Vampire \n\nData Technical :\n!!! SAMPLE !!!\nAudio.....: English\nSubtitles.: None\nFormat                           : AVI\nFormat/Info                      : Audio Video Interleave\nFile size                        : 980 MiB\nDuration                         : 1h 28mn\nOverall bit rate                 : 1 555 Kbps\nVideo\nID                               : 0\nFormat                           : MPEG-4 Visual\nFormat settings, BVOP            : Yes\nFormat settings, QPel            : No\nFormat settings, GMC             : No warppoints\nFormat settings, Matrix          : Default (H.263)\nMuxing mode                      : Packed bitstream\nCodec ID                         : DX50\nCodec ID/Hint                    : DivX 5\nDuration                         : 1h 28mn\nBit rate                         : 1 223 Kbps\nWidth                            : 720 pixels\nHeight                           : 480 pixels\nDisplay aspect ratio             : 3:2\nFrame rate                       : 29.970 fps\nStandard                         : NTSC\nColor space                      : YUV\nChroma subsampling               : 4:2:0\nBit depth                        : 8 bits\nScan type                        : Progressive\nBits/(Pixel*Frame)               : 0.118\nStream size                      : 771 MiB (79%)\nTitle                            : Video \nWriting library                  : DivX 3013\nAudio\nID                               : 1\nFormat                           : MPEG Audio\nFormat version                   : Version 1\nFormat profile                   : Layer 3\nCodec ID                         : 55\nCodec ID/Hint                    : MP3\nDuration                         : 1h 28mn\nBit rate mode                    : Constant\nBit rate                         : 320 Kbps\nChannel(s)                       : 2 channels\nSampling rate                    : 48.0 KHz\nStream size                      : 202 MiB (21%)\nAlignment                        : Split accross interleaves\nInterleave, duration             : 33 ms (1.00 video frame)\nInterleave, preload duration     : 500 ms\nTitle                            : Audio \n\nScreen : &lt;a href=&quot;\nhttp://img193.imageshack.us/img193/1518/ninjasvsvampires2010s1.jpg&quot; rel=&quot;nofollow&quot; target=&quot;_NEW&quot;&gt;\nhttp://img193.imageshack.us/img193/1518/ninjasvsvampires2010s1.jpg&lt;/a&gt; &lt;a href=&quot;\nhttp://img853.imageshack.us/img853/7256/ninjasvsvampires2010s2.jpg&quot; rel=&quot;nofollow&quot; target=&quot;_NEW&quot;&gt;\nhttp://img853.imageshack.us/img853/7256/ninjasvsvampires2010s2.jpg&lt;/a&gt; &lt;a href=&quot;\nhttp://img696.imageshack.us/img696/7524/ninjasvsvampires2010s3.jpg&quot; rel=&quot;nofollow&quot; target=&quot;_NEW&quot;&gt;\nhttp://img696.imageshack.us/img696/7524/ninjasvsvampires2010s3.jpg&lt;/a&gt; &lt;a href=&quot;\nhttp://img805.imageshack.us/img805/4315/ninjasvsvampires2010s4.jpg&quot; rel=&quot;nofollow&quot; target=&quot;_NEW&quot;&gt;\nhttp://img805.imageshack.us/img805/4315/ninjasvsvampires2010s4.jpg&lt;/a&gt; &lt;a href=&quot;\nhttp://img20.imageshack.us/img20/1434/ninjasvsvampires2010s5.jpg&quot; rel=&quot;nofollow&quot; target=&quot;_NEW&quot;&gt;\nhttp://img20.imageshack.us/img20/1434/ninjasvsvampires2010s5.jpg&lt;/a&gt;","torrent":{"xt":"urn:btih:4275fb3ba3b13c4e0db6ad972d3a07e9cc5cdb6e","amp;dn":"Ninjas+Vs+Vampires+%2A2010%2A+%5BDVDRip.XviD-miguel%5D+%5BENG%5D","amp;tr":["udp%3A%2F%2Ftracker.openbittorrent.com%3A80","udp%3A%2F%2Fopen.demonii.com%3A1337","udp%3A%2F%2Ftracker.coppersurfer.tk%3A6969","udp%3A%2F%2Fexodus.desync.com%3A6969"],"infoHash":"4275fb3ba3b13c4e0db6ad972d3a07e9cc5cdb6e","infoHashBuffer":{"type":"Buffer","data":[66,117,251,59,163,177,60,78,13,182,173,151,45,58,7,233,204,92,219,110]},"announce":[],"urlList":[]}}